<?xml version="1.0" encoding="utf-8"?>
<!-- Generator: Adobe Illustrator 23.0.6, SVG Export Plug-In . SVG Version: 6.00 Build 0)  -->
<svg version="1.1" id="Camada_1" xmlns="http://www.w3.org/2000/svg" xmlns:xlink="http://www.w3.org/1999/xlink" x="0px" y="0px"
	 viewBox="0 0 183.4 101.8" style="enable-background:new 0 0 183.4 101.8;" xml:space="preserve">
<style type="text/css">
	.st0{fill:#040006;}
</style>
<path d="M94.7,20.4c-13.9,0-25.1,11.2-25.1,25.1s11.2,25.1,25.1,25.1s25.1-11.2,25.1-25.1S108.5,20.4,94.7,20.4z M94.7,64.4
	c-10.4,0-18.9-8.5-18.9-18.9s8.5-18.9,18.9-18.9s18.9,8.5,18.9,18.9S105.1,64.4,94.7,64.4z"/>
<g>
	<path class="st0" d="M104.1,42.1h-1.3c0-1.1-0.9-2-2-2H85.9c-1.1,0-2,0.9-2,2v6.7c0,1.1,0.9,2,2,2h14.8c1.1,0,2-0.9,2-2h1.3
		c0.7,0,1.3-0.6,1.3-1.3v-4C105.4,42.7,104.8,42.1,104.1,42.1z M101.4,48.8c0,0.4-0.3,0.7-0.7,0.7H85.9c-0.4,0-0.7-0.3-0.7-0.7v-6.7
		c0-0.4,0.3-0.7,0.7-0.7h14.8c0.4,0,0.7,0.3,0.7,0.7V48.8z M104.1,47.5h-1.3v-4h1.3V47.5z"/>
	<path class="st0" d="M98.1,43.4c-0.2-0.3-0.6-0.6-1-0.6l-9.9,0c-0.4,0-0.7,0.3-0.7,0.7v4c0,0.4,0.3,0.7,0.7,0.7h12.5
		c0.4,0,0.5-0.3,0.4-0.6L98.1,43.4z"/>
</g>
</svg>
