<svg id="Camada_1" data-name="Camada 1" xmlns="http://www.w3.org/2000/svg" viewBox="0 0 59.28 59.28"><title>Cliente</title><path d="M94.68,15.84a29.64,29.64,0,1,0,29.64,29.64A29.64,29.64,0,0,0,94.68,15.84Zm0,52A22.32,22.32,0,1,1,117,45.48,22.32,22.32,0,0,1,94.68,67.8Z" transform="translate(-65.04 -15.84)"/><path d="M108.77,56.41V54.65c-2.09-4.4-5.28-5.28-5.28-5.28h-1.76a3.53,3.53,0,0,1-3.53-3.52V44.71a8.87,8.87,0,0,0,1.69-3.18c0-.19.22-.29.35-.42a2.19,2.19,0,0,0,.3-2.62c-.07-.13-.19-.23-.19-.39,0-1,0-2.06,0-3.1a5.15,5.15,0,0,0-1.26-3.46,4.86,4.86,0,0,0-2.67-1.38,8.84,8.84,0,0,0-3.83.09,4.58,4.58,0,0,0-2.73,1.85A5.31,5.31,0,0,0,89,34.89c0,1,0,2.1,0,3.16,0,.21-.16.35-.24.52a2.19,2.19,0,0,0,.5,2.68,1,1,0,0,1,.3.58,8.42,8.42,0,0,0,1.59,2.85v1.17a3.53,3.53,0,0,1-3.53,3.52H85.87s-3.19.88-5.28,5.28v1.76a1.76,1.76,0,0,0,1.76,1.77H107A1.76,1.76,0,0,0,108.77,56.41Z" transform="translate(-65.04 -15.84)"/></svg>