<?xml version="1.0" encoding="utf-8"?>
<!-- Generator: Adobe Illustrator 23.0.6, SVG Export Plug-In . SVG Version: 6.00 Build 0)  -->
<svg version="1.1" id="Camada_1" xmlns="http://www.w3.org/2000/svg" xmlns:xlink="http://www.w3.org/1999/xlink" x="0px" y="0px"
	 viewBox="0 0 183.4 101.8" style="enable-background:new 0 0 183.4 101.8;" xml:space="preserve">
<style type="text/css">
	.st0{fill:#040006;}
</style>
<g>
	<path class="st0" d="M95.3,37.2L95.3,37.2c0.3-0.1,0.4-0.2,0.4-0.4c0-0.3-0.2-0.4-0.6-0.4h-0.8v0.1c0.2,0,0.2,0,0.2,0.2v1.3
		c0,0.1,0,0.1-0.2,0.1v0.1h0.8c0.3,0,0.5-0.1,0.6-0.1c0.1-0.1,0.1-0.2,0.1-0.3C95.8,37.4,95.6,37.2,95.3,37.2z M94.8,36.6
		c0-0.1,0-0.1,0.1-0.1c0.2,0,0.3,0.1,0.3,0.3c0,0.2-0.1,0.3-0.3,0.3h-0.1V36.6z M95,38c-0.1,0-0.2,0-0.2-0.2v-0.6H95
		c0.3,0,0.4,0.2,0.4,0.4C95.3,37.9,95.2,38,95,38z"/>
	<path class="st0" d="M99,46c-0.7,0-1.3,0-1.9,0c0-1-0.8-2.3-1.6-2.3c-0.7,0-1.6,1.4-1.6,3c0,0.1,0,0.1,0,0.2c0,1.5,0.8,2.8,1.6,2.8
		c0.8,0,1.6-1.4,1.6-2.3c0.3,0,0.7,0,1,0l0.7-1c0.5,0,0.9,0,1.3,0c0-0.1,0-0.2,0-0.3C99.8,46,99.4,46,99,46z"/>
	<path class="st0" d="M97.2,37.9l-0.5-1.5h-0.3l-0.3,0.9c-0.1,0.3-0.2,0.5-0.2,0.7c0,0.1-0.1,0.1-0.2,0.1v0.1h0.6V38l-0.2,0
		c-0.1,0-0.1,0,0-0.1c0-0.1,0.1-0.3,0.1-0.4h0.5l0.1,0.4c0,0.1,0,0.1,0,0.1l-0.1,0v0.1h0.8V38C97.3,38,97.3,38,97.2,37.9z
		 M96.2,37.4l0.2-0.7h0l0.2,0.7H96.2z"/>
	<path class="st0" d="M89,36.6c-0.1,0.2-0.2,0.4-0.2,0.6c0,0.2,0.1,0.5,0.2,0.6c0.1,0.2,0.4,0.3,0.7,0.3c0.1,0,0.4,0,0.5-0.1v-0.4
		h-0.1C90.1,37.8,90,38,89.7,38c-0.4,0-0.5-0.6-0.5-0.7c0,0,0,0,0,0c0,0,0,0,0,0c0-0.2,0-0.7,0.5-0.7c0.3,0,0.4,0.3,0.4,0.4h0.1
		v-0.4c-0.1-0.1-0.4-0.1-0.5-0.1C89.3,36.4,89.1,36.5,89,36.6z"/>
	<path class="st0" d="M91.1,36.4c-0.6,0-0.8,0.3-0.8,0.9c0,0.5,0.3,0.9,0.8,0.9c0.6,0,0.8-0.3,0.8-0.9
		C91.9,36.7,91.7,36.4,91.1,36.4z M91.1,38c-0.4,0-0.4-0.4-0.4-0.8c0-0.3,0-0.8,0.4-0.8c0.4,0,0.4,0.5,0.4,0.8
		C91.5,37.6,91.5,38,91.1,38z"/>
	<path class="st0" d="M93.3,36.9l-0.2,0.6h0l-0.3-0.8c0-0.1-0.1-0.3-0.1-0.4h-0.7v0.1c0.2,0,0.2,0,0.2,0.2v0.9c0,0.2,0,0.3,0,0.4
		c0,0.1,0,0.1-0.1,0.1L92,38v0.1h0.6V38l-0.1,0c-0.1,0-0.1,0-0.1-0.1c0-0.1,0-0.2,0-0.4v-0.9h0l0.5,1.5H93l0.5-1.5h0v1.3
		c0,0.1,0,0.1-0.2,0.1v0.1h0.8V38c-0.2,0-0.2,0-0.2-0.1v-1.3c0-0.1,0-0.1,0.2-0.2v-0.1h-0.7C93.4,36.5,93.3,36.7,93.3,36.9z"/>
	<path class="st0" d="M99.7,35c-2.1,0.7-3.8,0.4-5-0.6c0,0,0,0,0,0c-1.6,1.2-3.1,1.2-5,0.6c-0.9,1.1-1.9,2.2-2.8,3.3
		c1.9,2.9,2.2,5.7,0.7,8.6c-1.5,2.9,0.1,5.9,2.5,6.8c2.4,0.9,3.3,1.5,4.6,2.8l0,0l0,0c1.2-1.4,2.2-1.9,4.6-2.8
		c2.4-0.9,4-3.9,2.5-6.8c-1.5-2.9-1.2-5.7,0.7-8.6C101.5,37.2,100.6,36.1,99.7,35z M99,52.9c-1.3,0.5-2.5,1-3.5,1.8
		c-0.3,0.2-0.6,0.5-0.8,0.7c-0.3-0.3-0.6-0.5-0.8-0.7c-0.2-0.2-0.4-0.3-0.7-0.5l2.5-3.6c2.4-0.2,4.5-1.3,4.5-3.1c0,0,0,0,0,0
		c-0.2,1.6-2.1,2.5-4.2,2.8c-2.6,0.3-5.7-0.5-6.6-2.5c-0.1-0.3-0.2-0.7-0.2-1.1c0,0.1,0,0.1,0,0.2c0,0.4,0.1,0.7,0.2,1l-1.5,2.1
		c-0.3-1-0.1-2.1,0.4-3.1c0.8-1.4,1.1-2.9,1-4.3c-0.1-1.3-0.5-2.6-1.2-3.9h7.9l-3.1,4.3c2.7-0.6,6,0,7,1.7l0.4-0.6
		c0.1,0.9,0.5,1.9,0.9,2.8c0.6,1.2,0.7,2.5,0.2,3.6C101,51.6,100.1,52.5,99,52.9z M101.6,46.7c0.7,1.2,0.8,2.6,0.2,3.9
		c-0.4,1-1.3,1.9-2.3,2.4c0.9-0.5,1.7-1.3,2.1-2.3c0.5-1.2,0.4-2.6-0.2-3.8c-0.5-1-0.8-2-1-3c0-0.1,0-0.1,0-0.2c0,0,0,0,0,0
		c0-0.2,0-0.3,0-0.5c0,0,0,0,0,0c0-0.2,0-0.3,0-0.5c0,0,0,0,0,0c0-0.1,0-0.2,0-0.2c0,0,0,0,0,0c0-0.1,0-0.1,0-0.2c0,0,0,0,0-0.1
		c0-0.1,0-0.2,0-0.2c0,0,0,0,0,0c0-0.1,0-0.1,0-0.2c0,0,0,0,0-0.1c0-0.1,0-0.1,0-0.2c0,0,0,0,0,0c0-0.1,0-0.1,0-0.2c0,0,0,0,0-0.1
		c0-0.1,0-0.1,0.1-0.2c0,0,0,0,0,0c0-0.1,0-0.1,0.1-0.2c0,0,0,0,0,0c0-0.1,0-0.1,0.1-0.2c0,0,0,0,0-0.1c0-0.1,0-0.1,0.1-0.2
		c0,0,0,0,0,0c0-0.1,0.1-0.1,0.1-0.2c0,0,0,0,0-0.1c0-0.1,0.1-0.1,0.1-0.2c0,0,0,0,0,0c0-0.1,0.1-0.1,0.1-0.2c0,0,0,0,0-0.1
		c0-0.1,0.1-0.1,0.1-0.2c0,0,0,0,0,0c0-0.1,0.1-0.1,0.1-0.2c0,0,0,0,0-0.1c0-0.1,0.1-0.2,0.1-0.2h-5.7h-8.4c1.6,2.7,1.9,5.5,0.3,8.3
		c-0.6,1.1-0.7,2.3-0.3,3.4l0,0c0,0,0,0,0,0c0,0.1,0,0.1,0.1,0.2c0,0,0,0,0,0c0,0.1,0,0.1,0.1,0.2c0.4,1,1.2,1.8,2.1,2.3
		c-1-0.5-1.8-1.3-2.3-2.4c-0.6-1.3-0.5-2.7,0.2-3.9c1.6-3,1.1-5.7-0.6-8.4c0.9-1,1.8-2,2.6-3c1.8,0.5,3.3,0.5,4.9-0.6
		c1.4,1.1,3.2,1.1,4.9,0.6c0.9,1,1.8,2,2.6,3C100.4,41,100,43.8,101.6,46.7z"/>
	<path class="st0" d="M97.2,36.9L97.2,36.9c0.2-0.3,0.2-0.4,0.4-0.4h0.1v1.4c0,0.1,0,0.1-0.1,0.1l-0.1,0v0.1h0.9V38l-0.1,0
		c-0.1,0-0.1,0-0.1-0.1v-1.4h0.1c0.2,0,0.3,0.1,0.4,0.4h0.1v-0.5h-1.5V36.9z"/>
	<path class="st0" d="M94.7,22.8C82.2,22.8,72,33,72,45.5s10.2,22.7,22.7,22.7s22.7-10.2,22.7-22.7S107.2,22.8,94.7,22.8z
		 M94.7,62.4c-9.4,0-16.9-7.6-16.9-16.9s7.6-16.9,16.9-16.9s16.9,7.6,16.9,16.9S104,62.4,94.7,62.4z"/>
	<path class="st0" d="M99.7,38c-0.2,0-0.2,0-0.2-0.2v-0.6h0.2c0.2,0,0.2,0,0.2,0.2h0.1v-0.6h-0.1c0,0.2-0.1,0.2-0.2,0.2h-0.2v-0.6
		c0-0.1,0-0.1,0.1-0.1h0.2c0.3,0,0.3,0.1,0.4,0.4h0.1v-0.5h-1.4v0.1c0.2,0,0.2,0,0.2,0.2v1.3c0,0.1,0,0.1-0.2,0.1v0.1h1.4l0-0.5
		h-0.1C100,37.9,100,38,99.7,38z"/>
</g>
</svg>
