<?xml version="1.0" encoding="utf-8"?>
<!-- Generator: Adobe Illustrator 23.0.6, SVG Export Plug-In . SVG Version: 6.00 Build 0)  -->
<svg version="1.1" id="Camada_1" xmlns="http://www.w3.org/2000/svg" xmlns:xlink="http://www.w3.org/1999/xlink" x="0px" y="0px"
	 viewBox="0 0 183.4 101.8" style="enable-background:new 0 0 183.4 101.8;" xml:space="preserve">
<style type="text/css">
	.st0{fill:#040006;}
</style>
<g>
	<path class="st0" d="M94.7,22.8C82.2,22.8,72,33,72,45.5s10.2,22.7,22.7,22.7c12.5,0,22.7-10.2,22.7-22.7S107.2,22.8,94.7,22.8z
		 M94.7,62.4c-9.4,0-16.9-7.6-16.9-16.9s7.6-16.9,16.9-16.9c9.4,0,16.9,7.6,16.9,16.9S104,62.4,94.7,62.4z"/>
	<g>
		<path class="st0" d="M85,43.9h-0.9v1.5h0.9c0.3,0,0.5-0.1,0.7-0.2c0.2-0.1,0.2-0.3,0.2-0.5v0c0-0.3-0.1-0.4-0.2-0.6
			C85.5,43.9,85.3,43.9,85,43.9z"/>
		<polygon class="st0" points="89.3,45.8 90.7,45.8 90,44.2 		"/>
		<path class="st0" d="M94.7,31.6c-7.6,0-13.8,6.2-13.8,13.8c0,7.6,6.2,13.8,13.8,13.8s13.8-6.2,13.8-13.8
			C108.5,37.8,102.3,31.6,94.7,31.6z M87.1,44.6c0,0.3-0.1,0.6-0.2,0.8s-0.3,0.4-0.4,0.6c-0.2,0.1-0.4,0.3-0.7,0.3
			c-0.2,0.1-0.5,0.1-0.8,0.1h-0.8v1.5h-1.1v-5.1h2.1c0.3,0,0.6,0,0.8,0.1c0.2,0.1,0.4,0.2,0.6,0.4c0.2,0.2,0.3,0.3,0.4,0.6
			C87,44.1,87.1,44.4,87.1,44.6L87.1,44.6z M91.5,47.9l-0.5-1.1h-2.1l-0.5,1.1h-1.1l2.2-5.1h1l2.2,5.1H91.5z M98.1,47.9h-0.9
			l-2.5-3.2v3.2h-1.1v-5.1h1L97,46v-3.1h1.1V47.9z M100.7,47.9h-1.1v-5.1h1.1V47.9z M105.8,47.8c-0.2,0.1-0.3,0.1-0.5,0.2
			c-0.2,0-0.4,0.1-0.7,0.1c-0.4,0-0.7-0.1-1-0.2c-0.3-0.1-0.6-0.3-0.8-0.6c-0.2-0.2-0.4-0.5-0.5-0.8c-0.1-0.3-0.2-0.7-0.2-1v0
			c0-0.4,0.1-0.7,0.2-1c0.1-0.3,0.3-0.6,0.5-0.8c0.2-0.2,0.5-0.4,0.8-0.6s0.7-0.2,1.1-0.2c0.2,0,0.5,0,0.6,0.1
			c0.2,0,0.4,0.1,0.5,0.2c0.2,0.1,0.3,0.2,0.4,0.2c0.1,0.1,0.3,0.2,0.4,0.3l-0.7,0.8c-0.2-0.2-0.4-0.3-0.6-0.4
			c-0.2-0.1-0.4-0.2-0.7-0.2c-0.2,0-0.4,0-0.6,0.1s-0.3,0.2-0.5,0.3c-0.1,0.1-0.2,0.3-0.3,0.5s-0.1,0.4-0.1,0.6v0
			c0,0.2,0,0.4,0.1,0.6s0.2,0.4,0.3,0.5s0.3,0.3,0.5,0.3c0.2,0.1,0.4,0.1,0.6,0.1c0.3,0,0.5-0.1,0.7-0.2s0.4-0.3,0.6-0.4l0.7,0.7
			c-0.1,0.1-0.3,0.3-0.4,0.4C106.1,47.6,105.9,47.7,105.8,47.8z"/>
	</g>
</g>
</svg>
