<?xml version="1.0" encoding="utf-8"?>
<!-- Generator: Adobe Illustrator 23.0.6, SVG Export Plug-In . SVG Version: 6.00 Build 0)  -->
<svg version="1.1" id="Camada_1" xmlns="http://www.w3.org/2000/svg" xmlns:xlink="http://www.w3.org/1999/xlink" x="0px" y="0px"
	 viewBox="0 0 183.4 101.8" style="enable-background:new 0 0 183.4 101.8;" xml:space="preserve">
<style type="text/css">
	.st0{fill:#B2B2B2;}
	.st1{fill:#FFB32F;}
</style>
<path class="st0" d="M96.1,73.4l-2.7,27.4l-2.7-27.4c-0.1-1-0.2-2-0.2-3.1V44.9h5.8v25.5C96.3,71.4,96.2,72.4,96.1,73.4z"/>
<g>
	<path class="st1" d="M94.3,0c-14,0-25.4,11.4-25.4,25.4s11.4,25.4,25.4,25.4c14,0,25.4-11.4,25.4-25.4S108.3,0,94.3,0z M94.3,44.4
		c-10.5,0-19-8.5-19-19s8.5-19,19-19c10.5,0,19,8.5,19,19S104.8,44.4,94.3,44.4z"/>
	<path class="st1" d="M104.7,23.9c-1.4,0-2.7,0.7-3.5,1.8l-1.1-0.5v-0.7l3.4-1.4l0.9-2h0.4l2,2.4c0.1,0.1,0.2,0.1,0.3,0.1
		c0.1,0,0.2,0,0.3-0.1c0.2-0.1,0.2-0.4,0-0.6l-1.6-1.9h0.3c0.2,0,0.4-0.2,0.4-0.4c0-0.2-0.2-0.4-0.4-0.4h-0.6l0.5-0.2
		c0.2-0.1,0.4-0.4,0.2-0.7l-0.3-0.6c-0.1-0.2-0.3-0.3-0.4-0.3l-5.5,0h0c-0.1,0-0.3,0.1-0.4,0.2c0,0-1.1,1.2-3.2,1.4
		c-0.1-0.3-0.4-0.6-0.7-1c-0.8-0.9-1.8-1.3-3-1.3c-0.2,0-0.5,0-0.7,0.1c0,0,0,0,0,0c-0.1,0-1.4,0.2-3.4,0.8c0,0-0.1,0-0.1,0
		c-0.2,0-0.8,0-1-0.4c0,0,0-0.1,0-0.1l0.9-0.2c0.3,0,0.4-0.3,0.4-0.5c0-0.3-0.3-0.4-0.5-0.4l-0.7,0.1c0.1-0.5,0.4-1.1,0.9-2
		c0.1-0.2,0.1-0.4,0-0.6c-0.1-0.1-0.2-0.2-0.4-0.2c-0.1,0-0.1,0-0.2,0c-0.1,0-1.4,0.5-2.5,1.8c-0.8,0.8-1.6,2-1.8,3.7
		c0.1-0.1,0.2-0.3,0.3-0.4c0,0,1.4,0.9,0.6,2.2h-0.9c0,0.3,0.1,0.5,0.1,0.8c0,0.1,0.1,0.2,0.2,0.3l1.1,1c-3.6-0.5-5,1.9-5,1.9
		c-0.3,0.4-0.1,0.8,0.3,0.5c-0.3,0.6-0.5,1.2-0.5,1.9c0,2.3,1.9,4.2,4.2,4.2c2.3,0,4.2-1.9,4.2-4.2c0-0.2,0-0.3,0-0.5h5.2l-2-1.5
		c0,0-2.4,0.2-4.1-1.6c0.2,0,0.4,0,0.6,0c1.4,0,3.3,0.3,4.7,1.4c0,0,0,0,0.1,0l4.6,3.1c0.1,0.1,0.2,0.1,0.3,0.1c0.1,0,0.3,0,0.4-0.1
		l1.8-1.8l1.1,0.5c0,0.2,0,0.4,0,0.5c0,2.3,1.9,4.2,4.2,4.2c2.3,0,4.2-1.9,4.2-4.2S107,23.9,104.7,23.9L104.7,23.9z M100.1,22.9
		l3.1-1.5l-0.4,1l-2.7,1.1V22.9z M83.9,30.4c-1.2,0-2.2-1-2.2-2.2c0-1.2,1-2.2,2.2-2.2c0.1,0,0.1,0,0.2,0l-0.9,1.9l1.8,0.9l0.9-1.8
		c0.2,0.4,0.4,0.8,0.4,1.2C86.1,29.4,85.1,30.4,83.9,30.4L83.9,30.4z M104.7,30.4c-1.1,0-2.1-0.8-2.2-1.9l1.7,0.7l0.8-1.8l-1.8-0.8
		c0.4-0.4,1-0.6,1.6-0.6c1.2,0,2.2,1,2.2,2.2C106.9,29.4,105.9,30.4,104.7,30.4L104.7,30.4z M104.7,30.4"/>
</g>
</svg>
