<?xml version="1.0" encoding="utf-8"?>
<!-- Generator: Adobe Illustrator 23.0.6, SVG Export Plug-In . SVG Version: 6.00 Build 0)  -->
<svg version="1.1" id="Camada_1" xmlns="http://www.w3.org/2000/svg" xmlns:xlink="http://www.w3.org/1999/xlink" x="0px" y="0px"
	 viewBox="0 0 183.4 101.8" style="enable-background:new 0 0 183.4 101.8;" xml:space="preserve">
<style type="text/css">
	.st0{fill:#B2B2B2;}
	.st1{fill:#B2B2B2;stroke:#B2B2B2;stroke-width:0.5;stroke-miterlimit:10;}
</style>
<path class="st0" d="M94.2,70.9l-2.5,24.5l-2.5-24.5c-0.1-0.9-0.1-1.8-0.1-2.7V45.4h5.2v22.8C94.4,69.1,94.3,70,94.2,70.9z"/>
<g>
	<path class="st0" d="M109.8,37.6c1.5-2.9,2.4-6.3,2.4-9.8c0-11.8-9.6-21.4-21.4-21.4c-11.8,0-21.4,9.6-21.4,21.4
		c0,11.8,9.6,21.4,21.4,21.4c3.3,0,6.4-0.7,9.2-2.1c1.1,2.7,3.7,4.6,6.8,4.6c4.1,0,7.4-3.3,7.4-7.4
		C114.1,41.3,112.3,38.8,109.8,37.6z M100.4,40.5c-2.7,2.1-6.1,3.3-9.7,3.3c-8.8,0-16-7.2-16-16s7.2-16,16-16s16,7.2,16,16
		c0,3.8-1.4,7.3-3.6,10.1C102,38.5,101.1,39.4,100.4,40.5z M109.3,46.1c0.2,0.2,0.2,0.4,0,0.6c-0.1,0.1-0.2,0.1-0.3,0.1
		c-0.1,0-0.2,0-0.3-0.1l-2-2l-2,2c-0.1,0.1-0.2,0.1-0.3,0.1c-0.1,0-0.2,0-0.3-0.1c-0.2-0.2-0.2-0.4,0-0.6l2-2l-2-2
		c-0.2-0.2-0.2-0.4,0-0.6c0.2-0.2,0.4-0.2,0.6,0l2,2l2-2c0.2-0.2,0.4-0.2,0.6,0c0.2,0.2,0.2,0.4,0,0.6l-2,2L109.3,46.1z"/>
	<g>
		<path class="st1" d="M99.8,24.9h-1.1c0-0.9-0.8-1.7-1.7-1.7H84.4c-0.9,0-1.7,0.8-1.7,1.7v5.7c0,0.9,0.8,1.7,1.7,1.7h12.5
			c0.9,0,1.7-0.8,1.7-1.7h1.1c0.6,0,1.1-0.5,1.1-1.1v-3.4C100.9,25.4,100.4,24.9,99.8,24.9z M97.5,30.6c0,0.3-0.3,0.6-0.6,0.6H84.4
			c-0.3,0-0.6-0.3-0.6-0.6v-5.7c0-0.3,0.3-0.6,0.6-0.6h12.5c0.3,0,0.6,0.3,0.6,0.6V30.6z M99.8,29.5h-1.1v-3.4h1.1V29.5z"/>
	</g>
</g>
</svg>
