<?xml version="1.0" encoding="utf-8"?>
<!-- Generator: Adobe Illustrator 23.0.6, SVG Export Plug-In . SVG Version: 6.00 Build 0)  -->
<svg version="1.1" id="Camada_1" xmlns="http://www.w3.org/2000/svg" xmlns:xlink="http://www.w3.org/1999/xlink" x="0px" y="0px"
	 viewBox="0 0 183.4 101.8" style="enable-background:new 0 0 183.4 101.8;" xml:space="preserve">
<style type="text/css">
	.st0{fill:#B2B2B2;}
	.st1{fill:#FFC258;}
</style>
<path class="st0" d="M94.2,73.2l-2.5,24.5l-2.5-24.5c-0.1-0.9-0.1-1.8-0.1-2.7V47.7h5.2v22.8C94.3,71.3,94.3,72.3,94.2,73.2z"/>
<g>
	<path class="st1" d="M101.8,37.9v-1.3c-1.5-3.2-3.8-3.8-3.8-3.8h-1.3c-1.4,0-2.5-1.1-2.5-2.5v-0.8c0.6-0.7,1-1.4,1.2-2.3
		c0-0.1,0.2-0.2,0.3-0.3c0.5-0.5,0.6-1.3,0.2-1.9c0-0.1-0.1-0.2-0.1-0.3c0-0.7,0-1.5,0-2.2c0-0.9-0.3-1.8-0.9-2.5
		c-0.5-0.5-1.2-0.9-1.9-1c-0.9-0.2-1.9-0.2-2.7,0.1c-0.8,0.2-1.5,0.7-2,1.3c-0.4,0.6-0.6,1.3-0.6,2c0,0.8,0,1.5,0,2.3
		c0,0.2-0.1,0.3-0.2,0.4c-0.3,0.6-0.2,1.5,0.4,1.9c0.1,0.1,0.2,0.3,0.2,0.4c0.2,0.7,0.6,1.4,1.1,2v0.8c0,1.4-1.1,2.5-2.5,2.5h-1.3
		c0,0-2.3,0.6-3.8,3.8v1.3c0,0.7,0.6,1.3,1.3,1.3h17.7C101.3,39.2,101.8,38.6,101.8,37.9z"/>
	<path class="st1" d="M110.8,39.8c1.5-2.9,2.4-6.3,2.4-9.8c0-11.8-9.6-21.4-21.4-21.4c-11.8,0-21.4,9.6-21.4,21.4
		s9.6,21.4,21.4,21.4c3.3,0,6.4-0.7,9.2-2.1c1.1,2.7,3.7,4.6,6.8,4.6c4.1,0,7.4-3.3,7.4-7.4C115.1,43.6,113.3,41,110.8,39.8z
		 M101.4,42.7c-2.7,2.1-6.1,3.3-9.7,3.3c-8.8,0-16-7.2-16-16s7.2-16,16-16c8.8,0,16,7.2,16,16c0,3.8-1.4,7.3-3.6,10.1
		C103,40.7,102.1,41.6,101.4,42.7z M108.7,50.9h-2v-2h2V50.9z M108.8,42.6l-0.6,5.4h-1l-0.6-5.4v-0.2h2.2V42.6z"/>
</g>
</svg>
