<?xml version="1.0" encoding="utf-8"?>
<!-- Generator: Adobe Illustrator 23.0.6, SVG Export Plug-In . SVG Version: 6.00 Build 0)  -->
<svg version="1.1" id="Camada_1" xmlns="http://www.w3.org/2000/svg" xmlns:xlink="http://www.w3.org/1999/xlink" x="0px" y="0px"
	 viewBox="0 0 40 40" style="enable-background:new 0 0 40 40;" xml:space="preserve">
<style type="text/css">
	.st0{fill:#B2B2B2;}
	.st1{fill:#B20404;}
	.st2{fill:#00294F;}
</style>
<path class="st0" d="M125.31,91.39l-2.45,24.51l-2.45-24.51c-0.09-0.91-0.14-1.83-0.14-2.75V65.87h5.18v22.78
	C125.45,89.56,125.41,90.48,125.31,91.39z"/>
<g>
	<path class="st1" d="M132.96,58.11v-1.26c-1.5-3.16-3.79-3.79-3.79-3.79h-1.26c-1.39,0-2.52-1.13-2.52-2.52v-0.81
		c0.56-0.66,0.96-1.45,1.21-2.28c0.03-0.14,0.16-0.21,0.25-0.31c0.48-0.48,0.58-1.3,0.22-1.88c-0.05-0.09-0.14-0.16-0.13-0.27
		c0-0.74,0-1.48,0-2.22c-0.02-0.89-0.27-1.82-0.9-2.48c-0.51-0.53-1.2-0.85-1.92-0.99c-0.9-0.17-1.85-0.16-2.75,0.06
		c-0.78,0.2-1.51,0.65-1.96,1.33c-0.4,0.59-0.57,1.3-0.6,2c-0.01,0.75,0,1.51-0.01,2.26c0.02,0.15-0.11,0.25-0.17,0.38
		c-0.34,0.62-0.19,1.46,0.36,1.91c0.14,0.1,0.17,0.27,0.22,0.42c0.24,0.75,0.64,1.44,1.14,2.04v0.84c0,1.39-1.13,2.52-2.52,2.52
		h-1.26c0,0-2.29,0.63-3.79,3.79v1.26c0,0.7,0.56,1.26,1.26,1.26h17.67C132.4,59.37,132.96,58.81,132.96,58.11z"/>
	<path class="st1" d="M141.9,60.06c1.52-2.94,2.39-6.28,2.39-9.82c0-11.83-9.59-21.42-21.42-21.42c-11.83,0-21.42,9.59-21.42,21.42
		s9.59,21.42,21.42,21.42c3.29,0,6.4-0.74,9.18-2.06c1.11,2.68,3.74,4.57,6.83,4.57c4.08,0,7.38-3.31,7.38-7.38
		C146.25,63.79,144.46,61.22,141.9,60.06z M132.58,62.94c-2.7,2.06-6.05,3.3-9.71,3.3c-8.84,0-16-7.17-16-16s7.17-16,16-16
		c8.84,0,16,7.17,16,16c0,3.83-1.35,7.35-3.6,10.1C134.16,60.96,133.24,61.86,132.58,62.94z M139.83,70.19h-1.67v-1.66h1.67V70.19z
		 M139.93,63.16l-0.49,4.57h-0.87l-0.49-4.57v-0.21h1.84V63.16z"/>
</g>
<path class="st0" d="M21.36,29l-1.1,11l-1.1-11c-0.04-0.41-0.06-0.82-0.06-1.23V17.55h2.32v10.22C21.42,28.18,21.4,28.59,21.36,29z"
	/>
<g>
	<path class="st2" d="M20.92,6.46L20.92,6.46c0.11-0.03,0.17-0.09,0.17-0.18c0-0.14-0.11-0.19-0.29-0.19h-0.38v0.04
		c0.08,0,0.09,0.01,0.09,0.07v0.57c0,0.06-0.01,0.06-0.09,0.07v0.04h0.38c0.13,0,0.21-0.02,0.26-0.06c0.05-0.04,0.07-0.09,0.07-0.15
		C21.12,6.54,21.02,6.47,20.92,6.46z M20.69,6.18c0-0.04,0.02-0.04,0.07-0.04c0.1,0,0.14,0.06,0.14,0.15c0,0.08-0.04,0.15-0.15,0.15
		h-0.06V6.18z M20.77,6.83c-0.06,0-0.08-0.02-0.08-0.07V6.49h0.06c0.11,0,0.17,0.08,0.17,0.18C20.92,6.79,20.85,6.83,20.77,6.83z"/>
	<path class="st2" d="M22.58,10.39c-0.3,0-0.6,0-0.87,0c0-0.43-0.37-1.05-0.72-1.05c-0.34,0-0.74,0.62-0.74,1.34
		c0,0.02,0,0.05,0,0.07c0.02,0.69,0.36,1.27,0.74,1.27c0.38,0,0.72-0.62,0.72-1.05c0.14,0,0.3,0,0.46,0l0.31-0.44
		c0.21,0,0.42,0,0.6,0c0-0.05,0-0.09-0.01-0.14C22.92,10.39,22.75,10.39,22.58,10.39z"/>
	<path class="st2" d="M21.77,6.78l-0.22-0.69h-0.14l-0.13,0.38c-0.04,0.12-0.08,0.23-0.11,0.3c-0.02,0.05-0.03,0.06-0.09,0.06v0.04
		h0.27V6.84l-0.07-0.01c-0.02,0-0.03-0.02-0.02-0.04c0.01-0.06,0.03-0.12,0.05-0.19h0.22l0.06,0.19c0.01,0.02,0,0.04-0.02,0.04
		L21.5,6.84v0.04h0.36V6.84C21.8,6.84,21.79,6.83,21.77,6.78z M21.33,6.54l0.09-0.3h0l0.09,0.3H21.33z"/>
	<path class="st2" d="M18.06,6.21C18,6.28,17.97,6.38,17.97,6.48c0,0.11,0.03,0.21,0.09,0.28c0.07,0.07,0.17,0.11,0.32,0.11
		c0.05,0,0.17-0.01,0.23-0.05V6.63h-0.04c-0.02,0.08-0.06,0.19-0.2,0.19c-0.2,0-0.21-0.25-0.21-0.33c0,0,0-0.01,0-0.01
		c0,0,0-0.01,0-0.01c0-0.08,0.02-0.33,0.21-0.33c0.14,0,0.18,0.11,0.2,0.19h0.04V6.14c-0.07-0.04-0.18-0.05-0.23-0.05
		C18.23,6.09,18.12,6.14,18.06,6.21z"/>
	<path class="st2" d="M19.02,6.09c-0.25,0-0.37,0.15-0.37,0.39c0,0.25,0.12,0.39,0.37,0.39c0.25,0,0.37-0.15,0.37-0.39
		C19.4,6.24,19.27,6.09,19.02,6.09z M19.02,6.83c-0.16,0-0.18-0.19-0.18-0.34c0-0.14,0.02-0.34,0.18-0.34c0.16,0,0.18,0.2,0.18,0.34
		C19.2,6.63,19.18,6.83,19.02,6.83z"/>
	<path class="st2" d="M19.99,6.34l-0.1,0.27h0l-0.14-0.35c-0.02-0.05-0.05-0.12-0.06-0.17h-0.3v0.04c0.08,0,0.09,0.01,0.09,0.07
		v0.39c0,0.09,0,0.14-0.01,0.18c0,0.04-0.01,0.06-0.04,0.06L19.4,6.84v0.04h0.27V6.84l-0.06-0.01c-0.03,0-0.04-0.02-0.05-0.06
		c0-0.04-0.01-0.09-0.01-0.18V6.2h0l0.25,0.66h0.07l0.24-0.66h0v0.57c0,0.06-0.01,0.06-0.09,0.07v0.04h0.35V6.84
		c-0.08,0-0.09-0.01-0.09-0.07V6.2c0-0.06,0.01-0.06,0.09-0.07V6.09h-0.3C20.06,6.15,20.02,6.26,19.99,6.34z"/>
	<path class="st2" d="M22.86,5.49c-0.96,0.3-1.69,0.18-2.23-0.28c0,0-0.01-0.01-0.01-0.01c-0.72,0.54-1.38,0.55-2.24,0.29
		c-0.42,0.49-0.84,0.99-1.26,1.48c0.84,1.3,1,2.54,0.32,3.84c-0.69,1.3,0.06,2.64,1.13,3.06c1.06,0.43,1.5,0.67,2.05,1.28l0,0l0,0
		c0.55-0.61,0.98-0.85,2.05-1.28c1.07-0.43,1.81-1.76,1.13-3.06c-0.69-1.3-0.53-2.54,0.32-3.84C23.7,6.48,23.28,5.98,22.86,5.49z
		 M22.57,13.53c-0.59,0.23-1.11,0.46-1.57,0.8c-0.13,0.1-0.25,0.21-0.38,0.33c-0.13-0.13-0.25-0.24-0.38-0.33
		c-0.09-0.07-0.19-0.14-0.29-0.2l1.14-1.62c1.06-0.09,2-0.56,2-1.4c0,0-0.01,0-0.01,0c-0.1,0.7-0.92,1.13-1.87,1.24
		c-1.19,0.14-2.57-0.21-2.96-1.11c-0.06-0.15-0.1-0.31-0.11-0.48c0,0.02,0,0.05,0,0.07c0,0.17,0.03,0.32,0.08,0.46l-0.68,0.95
		c-0.12-0.45-0.06-0.93,0.17-1.38c0.34-0.64,0.49-1.3,0.45-1.95c-0.03-0.57-0.21-1.15-0.53-1.74h3.56l-1.39,1.93
		c1.21-0.28,2.7-0.01,3.16,0.78l0.19-0.27c0.06,0.42,0.2,0.84,0.42,1.25c0.28,0.53,0.31,1.1,0.08,1.62
		C23.44,12.95,23.04,13.34,22.57,13.53z M23.72,10.73c0.3,0.55,0.34,1.17,0.09,1.74c-0.2,0.45-0.57,0.84-1.02,1.06
		c0.41-0.22,0.75-0.59,0.93-1.02c0.24-0.56,0.19-1.17-0.09-1.7c-0.24-0.45-0.38-0.9-0.43-1.34c0-0.03-0.01-0.06-0.01-0.09
		c0,0,0-0.01,0-0.01c-0.01-0.07-0.01-0.15-0.01-0.22c0-0.01,0-0.01,0-0.02c0-0.07,0-0.14,0-0.21c0-0.01,0-0.01,0-0.02
		c0-0.03,0-0.07,0.01-0.1c0,0,0,0,0-0.01c0-0.03,0.01-0.07,0.01-0.1c0-0.01,0-0.02,0-0.02c0-0.03,0.01-0.07,0.01-0.1
		c0,0,0-0.01,0-0.01c0-0.03,0.01-0.06,0.02-0.09c0-0.01,0-0.02,0-0.02c0.01-0.03,0.01-0.07,0.02-0.1c0-0.01,0-0.01,0-0.02
		c0.01-0.03,0.01-0.06,0.02-0.09c0-0.01,0-0.02,0.01-0.02c0.01-0.03,0.02-0.07,0.03-0.1c0-0.01,0-0.01,0.01-0.02
		c0.01-0.03,0.02-0.06,0.03-0.09c0-0.01,0-0.01,0.01-0.02c0.01-0.03,0.02-0.07,0.03-0.1c0-0.01,0.01-0.02,0.01-0.02
		c0.01-0.03,0.02-0.06,0.03-0.09c0-0.01,0-0.01,0.01-0.02c0.01-0.03,0.03-0.07,0.04-0.1c0-0.01,0.01-0.02,0.01-0.02
		c0.01-0.03,0.03-0.06,0.04-0.09c0,0,0-0.01,0.01-0.01c0.02-0.03,0.03-0.07,0.05-0.1c0-0.01,0.01-0.02,0.01-0.02
		c0.02-0.03,0.03-0.06,0.05-0.09c0,0,0-0.01,0-0.01c0.02-0.03,0.04-0.07,0.05-0.1c0-0.01,0.01-0.02,0.01-0.02
		c0.02-0.03,0.04-0.07,0.06-0.1h-2.55h-3.79c0.7,1.22,0.83,2.45,0.15,3.74c-0.25,0.48-0.31,1.01-0.16,1.52l0,0c0,0,0,0,0,0.01
		c0.01,0.03,0.02,0.05,0.03,0.08c0,0,0,0.01,0.01,0.01c0.01,0.03,0.02,0.06,0.03,0.08c0.18,0.43,0.52,0.8,0.93,1.02
		c-0.45-0.22-0.82-0.6-1.02-1.06c-0.25-0.57-0.2-1.19,0.09-1.74c0.71-1.33,0.51-2.56-0.29-3.79c0.39-0.45,0.79-0.9,1.18-1.36
		c0.82,0.24,1.49,0.23,2.2-0.27c0.65,0.5,1.44,0.49,2.21,0.27c0.39,0.45,0.79,0.9,1.18,1.36C23.21,8.17,23.01,9.4,23.72,10.73z"/>
	<path class="st2" d="M21.77,6.3h0.04c0.04-0.11,0.05-0.16,0.16-0.16h0.05v0.63c0,0.04-0.01,0.06-0.04,0.06l-0.07,0v0.04h0.4V6.84
		l-0.06,0c-0.04,0-0.05-0.02-0.05-0.06V6.14h0.05c0.11,0,0.12,0.05,0.16,0.16h0.04V6.09h-0.68V6.3z"/>
	<path class="st2" d="M20.62,0C15,0,10.45,4.56,10.45,10.18S15,20.35,20.62,20.35S30.8,15.8,30.8,10.18S26.24,0,20.62,0z
		 M20.62,17.78c-4.2,0-7.6-3.4-7.6-7.6s3.4-7.6,7.6-7.6s7.6,3.4,7.6,7.6S24.82,17.78,20.62,17.78z"/>
	<path class="st2" d="M22.86,6.83c-0.1,0-0.1-0.01-0.1-0.08V6.5h0.11c0.07,0,0.09,0.02,0.1,0.1h0.04V6.33h-0.04
		c-0.02,0.08-0.03,0.1-0.1,0.1h-0.11V6.18c0-0.03,0.01-0.04,0.04-0.04h0.09c0.12,0,0.14,0.05,0.17,0.16h0.04V6.09h-0.61v0.04
		c0.08,0,0.09,0.01,0.09,0.07v0.57c0,0.06-0.01,0.06-0.09,0.07v0.04h0.61l0-0.24h-0.04C23.01,6.76,23,6.83,22.86,6.83z"/>
</g>
</svg>
