<?xml version="1.0" encoding="utf-8"?>
<!-- Generator: Adobe Illustrator 23.0.6, SVG Export Plug-In . SVG Version: 6.00 Build 0)  -->
<svg version="1.1" id="Camada_1" xmlns="http://www.w3.org/2000/svg" xmlns:xlink="http://www.w3.org/1999/xlink" x="0px" y="0px"
	 viewBox="0 0 183.4 101.8" style="enable-background:new 0 0 183.4 101.8;" xml:space="preserve">
<style type="text/css">
	.st0{fill:#B2B2B2;}
	.st1{fill:#F26B1D;}
</style>
<path class="st0" d="M93.7,73.1l-2.5,24.5l-2.5-24.5c-0.1-0.9-0.1-1.8-0.1-2.7V47.5h5.2v22.8C93.8,71.2,93.8,72.1,93.7,73.1z"/>
<path class="st1" d="M96.6,29h-0.8v-4.8c0-2.6-2.1-4.8-4.8-4.8c-2.6,0-4.8,2.1-4.8,4.8v1.6h1.6v-1.6c0-1.8,1.4-3.2,3.2-3.2
	c1.8,0,3.2,1.4,3.2,3.2V29h-8.7c-2.1,2.9-1.8,6.9,0.9,9.3c2.6,2.4,6.7,2.4,9.3,0C98.4,35.9,98.8,31.8,96.6,29L96.6,29z M91.9,35.1v2
	c0,0.4-0.4,0.8-0.8,0.8c-0.4,0-0.8-0.4-0.8-0.8v-2c-0.5-0.3-0.8-0.8-0.8-1.3c0-0.9,0.7-1.6,1.6-1.6c0.9,0,1.6,0.7,1.6,1.6
	C92.7,34.3,92.3,34.8,91.9,35.1L91.9,35.1z M91.9,35.1"/>
<g>
	<path class="st1" d="M107.8,47.7c-0.2,0-0.4,0.2-0.4,0.4c0,0.2,0.2,0.4,0.4,0.4s0.4-0.2,0.4-0.4C108.2,47.8,108,47.7,107.8,47.7z"
		/>
	<path class="st1" d="M110.3,39.6c1.4-2.9,2.2-6.1,2.2-9.5c0-11.8-9.6-21.4-21.4-21.4c-11.8,0-21.4,9.6-21.4,21.4
		s9.6,21.4,21.4,21.4c3.7,0,7.2-1,10.3-2.6c0.9,3,3.7,5.2,7,5.2c4.1,0,7.4-3.3,7.4-7.4C115.7,43.3,113.4,40.4,110.3,39.6z
		 M91.1,45.9c-8.7,0-15.8-7.1-15.8-15.8c0-8.7,7.1-15.8,15.8-15.8c8.7,0,15.8,7.1,15.8,15.8C106.9,38.9,99.8,45.9,91.1,45.9z
		 M112,48.4h-2.7c-0.2,0.7-0.8,1.1-1.5,1.1c-0.8,0-1.5-0.7-1.5-1.5c0-0.7,0.5-1.3,1.1-1.5v-3.8c0-0.2,0.2-0.4,0.4-0.4
		c0.2,0,0.4,0.2,0.4,0.4v3.8c0.5,0.1,0.9,0.6,1.1,1.1h2.7c0.2,0,0.4,0.2,0.4,0.4C112.4,48.2,112.2,48.4,112,48.4z"/>
</g>
</svg>
