<?xml version="1.0" encoding="utf-8"?>
<!-- Generator: Adobe Illustrator 23.0.6, SVG Export Plug-In . SVG Version: 6.00 Build 0)  -->
<svg version="1.1" id="Camada_1" xmlns="http://www.w3.org/2000/svg" xmlns:xlink="http://www.w3.org/1999/xlink" x="0px" y="0px"
	 viewBox="0 0 40 40" style="enable-background:new 0 0 40 40;" xml:space="preserve">
<style type="text/css">
	.st0{fill:#B2B2B2;}
	.st1{fill:#B20404;}
</style>
<path class="st0" d="M125.31,91.39l-2.45,24.51l-2.45-24.51c-0.09-0.91-0.14-1.83-0.14-2.75V65.87h5.18v22.78
	C125.45,89.56,125.41,90.48,125.31,91.39z"/>
<g>
	<path class="st1" d="M132.96,58.11v-1.26c-1.5-3.16-3.79-3.79-3.79-3.79h-1.26c-1.39,0-2.52-1.13-2.52-2.52v-0.81
		c0.56-0.66,0.96-1.45,1.21-2.28c0.03-0.14,0.16-0.21,0.25-0.31c0.48-0.48,0.58-1.3,0.22-1.88c-0.05-0.09-0.14-0.16-0.13-0.27
		c0-0.74,0-1.48,0-2.22c-0.02-0.89-0.27-1.82-0.9-2.48c-0.51-0.53-1.2-0.85-1.92-0.99c-0.9-0.17-1.85-0.16-2.75,0.06
		c-0.78,0.2-1.51,0.65-1.96,1.33c-0.4,0.59-0.57,1.3-0.6,2c-0.01,0.75,0,1.51-0.01,2.26c0.02,0.15-0.11,0.25-0.17,0.38
		c-0.34,0.62-0.19,1.46,0.36,1.91c0.14,0.1,0.17,0.27,0.22,0.42c0.24,0.75,0.64,1.44,1.14,2.04v0.84c0,1.39-1.13,2.52-2.52,2.52
		h-1.26c0,0-2.29,0.63-3.79,3.79v1.26c0,0.7,0.56,1.26,1.26,1.26h17.67C132.4,59.37,132.96,58.81,132.96,58.11z"/>
	<path class="st1" d="M141.9,60.06c1.52-2.94,2.39-6.28,2.39-9.82c0-11.83-9.59-21.42-21.42-21.42c-11.83,0-21.42,9.59-21.42,21.42
		s9.59,21.42,21.42,21.42c3.29,0,6.4-0.74,9.18-2.06c1.11,2.68,3.74,4.57,6.83,4.57c4.08,0,7.38-3.31,7.38-7.38
		C146.25,63.79,144.46,61.22,141.9,60.06z M132.58,62.94c-2.7,2.06-6.05,3.3-9.71,3.3c-8.84,0-16-7.17-16-16s7.17-16,16-16
		c8.84,0,16,7.17,16,16c0,3.83-1.35,7.35-3.6,10.1C134.16,60.96,133.24,61.86,132.58,62.94z M139.83,70.19h-1.67v-1.66h1.67V70.19z
		 M139.93,63.16l-0.49,4.57h-0.87l-0.49-4.57v-0.21h1.84V63.16z"/>
</g>
<path class="st0" d="M20.88,28.97l-1.1,10.99l-1.1-10.99c-0.04-0.41-0.06-0.82-0.06-1.23V17.52h2.32v10.22
	C20.94,28.15,20.92,28.56,20.88,28.97z"/>
<g>
	<g>
		<path class="st1" d="M27.54,13.85c0.63-1.28,0.99-2.72,0.99-4.25c0-5.3-4.3-9.6-9.6-9.6c-5.3,0-9.6,4.3-9.6,9.6s4.3,9.6,9.6,9.6
			c1.67,0,3.25-0.43,4.61-1.18c0.42,1.34,1.67,2.32,3.15,2.32c1.82,0,3.3-1.48,3.3-3.3C30,15.51,28.96,14.23,27.54,13.85z
			 M11.84,9.6c0-3.91,3.17-7.08,7.08-7.08c3.91,0,7.08,3.17,7.08,7.08c0,3.91-3.17,7.08-7.08,7.08
			C15.01,16.69,11.84,13.52,11.84,9.6z M27,18.36h-0.61v-0.6H27V18.36z M27.03,15.8l-0.18,1.66h-0.32l-0.18-1.66v-0.08h0.67V15.8z"
			/>
	</g>
	<g>
		<path class="st1" d="M16.34,12.77l-0.29,0.89h5.77l-0.29-0.89H16.34z M17.24,13.49h-0.95l0.18-0.56h1.32
			C17.61,13.12,17.43,13.3,17.24,13.49L17.24,13.49z M17.24,13.49"/>
		<path class="st1" d="M18.91,7.42c-1.27,0-2.3,1.03-2.3,2.3v2.82h4.63V9.72c0-1.27-1.03-2.3-2.3-2.3H18.91z M20.8,9.78
			c0,0.11-0.09,0.2-0.2,0.2c-0.11,0-0.2-0.09-0.2-0.2c0-0.8-0.65-1.44-1.44-1.44h-0.03c-0.11,0-0.2-0.09-0.2-0.2
			c0-0.11,0.09-0.2,0.2-0.2h0.03C19.97,7.94,20.8,8.77,20.8,9.78L20.8,9.78z M20.8,9.78"/>
		<path class="st1" d="M16.24,8.79c0.04-0.2-0.09-0.4-0.29-0.44l-1.08-0.22c-0.2-0.04-0.4,0.09-0.44,0.29
			c-0.01,0.04-0.01,0.09,0,0.13c0.02,0.15,0.14,0.28,0.3,0.31l1.08,0.22C16.01,9.13,16.2,9,16.24,8.79L16.24,8.79z M16.24,8.79"/>
		<path class="st1" d="M16,6.28l0.69,0.86c0.13,0.16,0.36,0.19,0.53,0.06c0.16-0.13,0.19-0.36,0.06-0.53l-0.69-0.86
			c-0.13-0.16-0.36-0.19-0.53-0.06c-0.11,0.09-0.16,0.22-0.14,0.35C15.93,6.17,15.95,6.23,16,6.28L16,6.28z M16,6.28"/>
		<path class="st1" d="M18.97,6.61c0.21,0,0.38-0.16,0.38-0.37l0-1.1c0-0.21-0.16-0.38-0.37-0.38c-0.21,0-0.38,0.16-0.38,0.37l0,1.1
			c0,0.02,0,0.04,0,0.07C18.64,6.47,18.79,6.61,18.97,6.61L18.97,6.61z M18.97,6.61"/>
		<path class="st1" d="M20.71,7.29c0.16,0.14,0.39,0.12,0.53-0.03l0.73-0.83c0.14-0.16,0.12-0.39-0.03-0.53
			c-0.16-0.14-0.39-0.12-0.53,0.03l-0.73,0.83c-0.08,0.09-0.11,0.2-0.09,0.3C20.6,7.15,20.64,7.23,20.71,7.29L20.71,7.29z
			 M20.71,7.29"/>
		<path class="st1" d="M23.43,8.64c-0.03-0.2-0.22-0.34-0.43-0.31l-1.09,0.17c-0.2,0.03-0.34,0.22-0.31,0.43
			c0.03,0.2,0.22,0.34,0.43,0.31l1.09-0.17C23.32,9.04,23.46,8.85,23.43,8.64L23.43,8.64z M23.43,8.64"/>
	</g>
</g>
</svg>
