<?xml version="1.0" encoding="utf-8"?>
<!-- Generator: Adobe Illustrator 23.0.6, SVG Export Plug-In . SVG Version: 6.00 Build 0)  -->
<svg version="1.1" id="Camada_1" xmlns="http://www.w3.org/2000/svg" xmlns:xlink="http://www.w3.org/1999/xlink" x="0px" y="0px"
	 viewBox="0 0 40 40" style="enable-background:new 0 0 40 40;" xml:space="preserve">
<style type="text/css">
	.st0{fill:#B2B2B2;}
	.st1{fill:#B20404;}
	.st2{fill:#F26B1D;}
</style>
<path class="st0" d="M125.31,91.39l-2.45,24.51l-2.45-24.51c-0.09-0.91-0.14-1.83-0.14-2.75V65.87h5.18v22.78
	C125.45,89.56,125.41,90.48,125.31,91.39z"/>
<g>
	<path class="st1" d="M132.96,58.11v-1.26c-1.5-3.16-3.79-3.79-3.79-3.79h-1.26c-1.39,0-2.52-1.13-2.52-2.52v-0.81
		c0.56-0.66,0.96-1.45,1.21-2.28c0.03-0.14,0.16-0.21,0.25-0.31c0.48-0.48,0.58-1.3,0.22-1.88c-0.05-0.09-0.14-0.16-0.13-0.27
		c0-0.74,0-1.48,0-2.22c-0.02-0.89-0.27-1.82-0.9-2.48c-0.51-0.53-1.2-0.85-1.92-0.99c-0.9-0.17-1.85-0.16-2.75,0.06
		c-0.78,0.2-1.51,0.65-1.96,1.33c-0.4,0.59-0.57,1.3-0.6,2c-0.01,0.75,0,1.51-0.01,2.26c0.02,0.15-0.11,0.25-0.17,0.38
		c-0.34,0.62-0.19,1.46,0.36,1.91c0.14,0.1,0.17,0.27,0.22,0.42c0.24,0.75,0.64,1.44,1.14,2.04v0.84c0,1.39-1.13,2.52-2.52,2.52
		h-1.26c0,0-2.29,0.63-3.79,3.79v1.26c0,0.7,0.56,1.26,1.26,1.26h17.67C132.4,59.37,132.96,58.81,132.96,58.11z"/>
	<path class="st1" d="M141.9,60.06c1.52-2.94,2.39-6.28,2.39-9.82c0-11.83-9.59-21.42-21.42-21.42c-11.83,0-21.42,9.59-21.42,21.42
		s9.59,21.42,21.42,21.42c3.29,0,6.4-0.74,9.18-2.06c1.11,2.68,3.74,4.57,6.83,4.57c4.08,0,7.38-3.31,7.38-7.38
		C146.25,63.79,144.46,61.22,141.9,60.06z M132.58,62.94c-2.7,2.06-6.05,3.3-9.71,3.3c-8.84,0-16-7.17-16-16s7.17-16,16-16
		c8.84,0,16,7.17,16,16c0,3.83-1.35,7.35-3.6,10.1C134.16,60.96,133.24,61.86,132.58,62.94z M139.83,70.19h-1.67v-1.66h1.67V70.19z
		 M139.93,63.16l-0.49,4.57h-0.87l-0.49-4.57v-0.21h1.84V63.16z"/>
</g>
<path class="st0" d="M20.73,29.03L19.64,40l-1.1-10.97c-0.04-0.41-0.06-0.82-0.06-1.23V17.61h2.32V27.8
	C20.79,28.21,20.77,28.62,20.73,29.03z"/>
<g>
	<g>
		<path class="st2" d="M28.17,13.95c0.63-1.28,0.99-2.72,0.99-4.24c0-5.29-4.29-9.58-9.58-9.58C14.29,0.13,10,4.42,10,9.71
			s4.29,9.58,9.58,9.58c1.67,0,3.24-0.43,4.6-1.18c0.42,1.34,1.67,2.31,3.15,2.31c1.82,0,3.3-1.48,3.3-3.3
			C30.63,15.6,29.59,14.32,28.17,13.95z M12.51,9.71c0-3.9,3.16-7.07,7.07-7.07c3.9,0,7.07,3.16,7.07,7.07
			c0,3.9-3.16,7.07-7.07,7.07C15.68,16.78,12.51,13.61,12.51,9.71z M27.63,18.45h-0.6v-0.6h0.6V18.45z M27.67,15.89l-0.18,1.66
			h-0.32L27,15.89v-0.08h0.67V15.89z"/>
	</g>
	<g>
		<path class="st2" d="M17,12.87l-0.29,0.88h5.75l-0.29-0.88H17z M17.9,13.59h-0.94l0.18-0.56h1.32
			C18.27,13.22,18.08,13.4,17.9,13.59L17.9,13.59z M17.9,13.59"/>
		<path class="st2" d="M19.56,7.53c-1.27,0-2.29,1.03-2.29,2.29v2.82h4.62V9.82c0-1.27-1.03-2.29-2.29-2.29H19.56z M21.45,9.89
			c0,0.11-0.09,0.2-0.2,0.2c-0.11,0-0.2-0.09-0.2-0.2c0-0.79-0.65-1.44-1.44-1.44h-0.03c-0.11,0-0.2-0.09-0.2-0.2
			c0-0.11,0.09-0.2,0.2-0.2h0.03C20.62,8.05,21.45,8.88,21.45,9.89L21.45,9.89z M21.45,9.89"/>
		<path class="st2" d="M16.9,8.9c0.04-0.2-0.09-0.4-0.29-0.44l-1.08-0.22c-0.2-0.04-0.4,0.09-0.44,0.29c-0.01,0.04-0.01,0.09,0,0.13
			c0.02,0.15,0.14,0.28,0.3,0.31l1.08,0.22C16.67,9.24,16.86,9.11,16.9,8.9L16.9,8.9z M16.9,8.9"/>
		<path class="st2" d="M16.66,6.4l0.69,0.86c0.13,0.16,0.36,0.19,0.52,0.06c0.16-0.13,0.19-0.36,0.06-0.52l-0.69-0.86
			c-0.13-0.16-0.36-0.19-0.52-0.06c-0.11,0.09-0.16,0.22-0.14,0.35C16.59,6.28,16.61,6.35,16.66,6.4L16.66,6.4z M16.66,6.4"/>
		<path class="st2" d="M19.63,6.72c0.21,0,0.38-0.16,0.38-0.36l0-1.1c0-0.21-0.16-0.38-0.36-0.38c-0.21,0-0.38,0.16-0.38,0.36l0,1.1
			c0,0.02,0,0.04,0,0.07C19.29,6.58,19.44,6.72,19.63,6.72L19.63,6.72z M19.63,6.72"/>
		<path class="st2" d="M21.36,7.4c0.15,0.14,0.39,0.12,0.53-0.03l0.73-0.83c0.14-0.15,0.12-0.39-0.03-0.53
			c-0.15-0.14-0.39-0.12-0.53,0.03l-0.73,0.83c-0.08,0.09-0.1,0.2-0.09,0.3C21.25,7.26,21.29,7.34,21.36,7.4L21.36,7.4z M21.36,7.4"
			/>
		<path class="st2" d="M24.07,8.75c-0.03-0.2-0.22-0.34-0.43-0.31L22.56,8.6c-0.2,0.03-0.34,0.22-0.31,0.43
			c0.03,0.2,0.22,0.34,0.43,0.31l1.09-0.17C23.97,9.14,24.11,8.95,24.07,8.75L24.07,8.75z M24.07,8.75"/>
	</g>
</g>
</svg>
