<?xml version="1.0" encoding="utf-8"?>
<!-- Generator: Adobe Illustrator 23.0.6, SVG Export Plug-In . SVG Version: 6.00 Build 0)  -->
<svg version="1.1" id="Camada_1" xmlns="http://www.w3.org/2000/svg" xmlns:xlink="http://www.w3.org/1999/xlink" x="0px" y="0px"
	 viewBox="0 0 183.4 101.8" style="enable-background:new 0 0 183.4 101.8;" xml:space="preserve">
<style type="text/css">
	.st0{fill:#B2B2B2;}
	.st1{fill:#B20404;}
</style>
<path class="st0" d="M93.3,72.8l-3,24.4l-1.9-24.6c-0.1-0.9-0.1-1.8-0.1-2.7l0.6-22.8l5.2,0.1L93.5,70C93.5,71,93.4,71.9,93.3,72.8z
	"/>
<g>
	<path class="st1" d="M110.8,40.3c1.5-2.9,2.4-6.3,2.4-9.8c0-11.8-9.6-21.4-21.4-21.4c-11.8,0-21.4,9.6-21.4,21.4
		s9.6,21.4,21.4,21.4c3.3,0,6.4-0.7,9.2-2.1c1.1,2.7,3.7,4.6,6.8,4.6c4.1,0,7.4-3.3,7.4-7.4C115.1,44,113.3,41.5,110.8,40.3z
		 M101.4,43.2c-2.7,2.1-6.1,3.3-9.7,3.3c-8.8,0-16-7.2-16-16s7.2-16,16-16c8.8,0,16,7.2,16,16c0,3.8-1.4,7.3-3.6,10.1
		C103,41.2,102.1,42.1,101.4,43.2z M108.7,50.4H107v-1.7h1.7V50.4z M108.8,43.4l-0.5,4.6h-0.9l-0.5-4.6v-0.2h1.8V43.4z"/>
</g>
<g>
	<path class="st1" d="M100.3,27.6h-1.1c0-0.9-0.8-1.7-1.7-1.7H84.9c-0.9,0-1.7,0.8-1.7,1.7v5.7c0,0.9,0.8,1.7,1.7,1.7h12.5
		c0.9,0,1.7-0.8,1.7-1.7h1.1c0.6,0,1.1-0.5,1.1-1.1v-3.4C101.4,28.1,100.9,27.6,100.3,27.6z M98,33.3c0,0.3-0.3,0.6-0.6,0.6H84.9
		c-0.3,0-0.6-0.3-0.6-0.6v-5.7c0-0.3,0.3-0.6,0.6-0.6h12.5c0.3,0,0.6,0.3,0.6,0.6V33.3z M100.3,32.2h-1.1v-3.4h1.1V32.2z"/>
	<path class="st1" d="M87.2,28.7c-0.1-0.3-0.5-0.5-0.8-0.5l-0.3,0c-0.3,0-0.6,0.3-0.6,0.6v3.4c0,0.3,0.3,0.6,0.6,0.6h2.6
		c0.3,0,0.5-0.2,0.3-0.5L87.2,28.7z"/>
</g>
</svg>
