<?xml version="1.0" encoding="utf-8"?>
<!-- Generator: Adobe Illustrator 23.0.6, SVG Export Plug-In . SVG Version: 6.00 Build 0)  -->
<svg version="1.1" id="Camada_1" xmlns="http://www.w3.org/2000/svg" xmlns:xlink="http://www.w3.org/1999/xlink" x="0px" y="0px"
	 viewBox="0 0 40 40" style="enable-background:new 0 0 40 40;" xml:space="preserve">
<style type="text/css">
	.st0{fill:#B2B2B2;}
	.st1{fill:#B20404;}
	.st2{fill:#040006;}
	.st3{fill:#FFFFFF;}
	.st4{font-family:'Gotham-Bold';}
	.st5{font-size:3.2499px;}
</style>
<path class="st0" d="M125.31,91.39l-2.45,24.51l-2.45-24.51c-0.09-0.91-0.14-1.83-0.14-2.75V65.87h5.18v22.78
	C125.45,89.56,125.41,90.48,125.31,91.39z"/>
<g>
	<path class="st1" d="M132.96,58.11v-1.26c-1.5-3.16-3.79-3.79-3.79-3.79h-1.26c-1.39,0-2.52-1.13-2.52-2.52v-0.81
		c0.56-0.66,0.96-1.45,1.21-2.28c0.03-0.14,0.16-0.21,0.25-0.31c0.48-0.48,0.58-1.3,0.22-1.88c-0.05-0.09-0.14-0.16-0.13-0.27
		c0-0.74,0-1.48,0-2.22c-0.02-0.89-0.27-1.82-0.9-2.48c-0.51-0.53-1.2-0.85-1.92-0.99c-0.9-0.17-1.85-0.16-2.75,0.06
		c-0.78,0.2-1.51,0.65-1.96,1.33c-0.4,0.59-0.57,1.3-0.6,2c-0.01,0.75,0,1.51-0.01,2.26c0.02,0.15-0.11,0.25-0.17,0.38
		c-0.34,0.62-0.19,1.46,0.36,1.91c0.14,0.1,0.17,0.27,0.22,0.42c0.24,0.75,0.64,1.44,1.14,2.04v0.84c0,1.39-1.13,2.52-2.52,2.52
		h-1.26c0,0-2.29,0.63-3.79,3.79v1.26c0,0.7,0.56,1.26,1.26,1.26h17.67C132.4,59.37,132.96,58.81,132.96,58.11z"/>
	<path class="st1" d="M141.9,60.06c1.52-2.94,2.39-6.28,2.39-9.82c0-11.83-9.59-21.42-21.42-21.42c-11.83,0-21.42,9.59-21.42,21.42
		s9.59,21.42,21.42,21.42c3.29,0,6.4-0.74,9.18-2.06c1.11,2.68,3.74,4.57,6.83,4.57c4.08,0,7.38-3.31,7.38-7.38
		C146.25,63.79,144.46,61.22,141.9,60.06z M132.58,62.94c-2.7,2.06-6.05,3.3-9.71,3.3c-8.84,0-16-7.17-16-16s7.17-16,16-16
		c8.84,0,16,7.17,16,16c0,3.83-1.35,7.35-3.6,10.1C134.16,60.96,133.24,61.86,132.58,62.94z M139.83,70.19h-1.67v-1.66h1.67V70.19z
		 M139.93,63.16l-0.49,4.57h-0.87l-0.49-4.57v-0.21h1.84V63.16z"/>
</g>
<path class="st0" d="M20.86,29l-1.1,11l-1.1-11c-0.04-0.41-0.06-0.82-0.06-1.23V17.55h2.32v10.22C20.92,28.18,20.9,28.59,20.86,29z"
	/>
<g>
	<path class="st2" d="M19.76,0C14.14,0,9.58,4.56,9.58,10.18s4.56,10.18,10.18,10.18c5.62,0,10.18-4.56,10.18-10.18S25.38,0,19.76,0
		z M19.76,17.78c-4.2,0-7.6-3.4-7.6-7.6s3.4-7.6,7.6-7.6c4.2,0,7.6,3.4,7.6,7.6S23.96,17.78,19.76,17.78z"/>
	<circle class="st1" cx="19.76" cy="10.18" r="6.21"/>
	<text transform="matrix(1 0 0 1 14.2734 11.2759)" class="st3 st4 st5">PANIC</text>
</g>
</svg>
