<?xml version="1.0" encoding="utf-8"?>
<!-- Generator: Adobe Illustrator 23.0.6, SVG Export Plug-In . SVG Version: 6.00 Build 0)  -->
<svg version="1.1" id="Camada_1" xmlns="http://www.w3.org/2000/svg" xmlns:xlink="http://www.w3.org/1999/xlink" x="0px" y="0px"
	 viewBox="0 0 40 40" style="enable-background:new 0 0 40 40;" xml:space="preserve">
<style type="text/css">
	.st0{fill:#B2B2B2;}
	.st1{fill:#0F698C;}
</style>
<path class="st0" d="M21.79,29.02L20.69,40l-1.1-10.98c-0.04-0.41-0.06-0.82-0.06-1.23V17.58h2.32v10.21
	C21.85,28.2,21.83,28.61,21.79,29.02z"/>
<g>
	<path class="st1" d="M24.77,13.13v-0.57c-0.67-1.41-1.7-1.7-1.7-1.7h-0.57c-0.62,0-1.13-0.51-1.13-1.13V9.37
		c0.25-0.3,0.43-0.65,0.54-1.02c0.01-0.06,0.07-0.09,0.11-0.14c0.22-0.22,0.26-0.58,0.1-0.84c-0.02-0.04-0.06-0.07-0.06-0.12
		c0-0.33,0-0.66,0-1c-0.01-0.4-0.12-0.82-0.4-1.11c-0.23-0.24-0.54-0.38-0.86-0.44c-0.41-0.08-0.83-0.07-1.23,0.03
		c-0.35,0.09-0.68,0.29-0.88,0.59c-0.18,0.26-0.26,0.58-0.27,0.9c-0.01,0.34,0,0.68,0,1.01c0.01,0.07-0.05,0.11-0.08,0.17
		c-0.15,0.28-0.09,0.66,0.16,0.86c0.06,0.04,0.07,0.12,0.1,0.19c0.11,0.33,0.29,0.64,0.51,0.91v0.38c0,0.62-0.51,1.13-1.13,1.13
		h-0.57c0,0-1.03,0.28-1.7,1.7v0.57c0,0.31,0.25,0.57,0.57,0.57h7.92C24.52,13.69,24.77,13.44,24.77,13.13z"/>
	<path class="st1" d="M28.78,14c0.68-1.32,1.07-2.81,1.07-4.4c0-5.3-4.3-9.6-9.6-9.6c-5.3,0-9.6,4.3-9.6,9.6s4.3,9.6,9.6,9.6
		c1.47,0,2.87-0.33,4.11-0.92c0.5,1.2,1.68,2.05,3.06,2.05c1.83,0,3.31-1.48,3.31-3.31C30.73,15.67,29.93,14.52,28.78,14z
		 M24.6,15.29c-1.21,0.93-2.71,1.48-4.35,1.48c-3.96,0-7.17-3.21-7.17-7.17s3.21-7.17,7.17-7.17c3.96,0,7.17,3.21,7.17,7.17
		c0,1.72-0.61,3.29-1.61,4.53C25.31,14.41,24.9,14.81,24.6,15.29z M29.3,16.18l-1.76,2.28c-0.05,0.07-0.12,0.1-0.19,0.1
		c-0.07,0-0.14-0.03-0.19-0.1l-0.84-1.08c-0.1-0.13-0.1-0.35,0-0.49c0.1-0.13,0.27-0.13,0.37,0l0.65,0.84l1.58-2.04
		c0.1-0.13,0.27-0.13,0.37,0C29.41,15.82,29.41,16.04,29.3,16.18z"/>
</g>
</svg>
