<?xml version="1.0" encoding="utf-8"?>
<!-- Generator: Adobe Illustrator 23.0.6, SVG Export Plug-In . SVG Version: 6.00 Build 0)  -->
<svg version="1.1" id="Camada_1" xmlns="http://www.w3.org/2000/svg" xmlns:xlink="http://www.w3.org/1999/xlink" x="0px" y="0px"
	 viewBox="0 0 183.4 101.8" style="enable-background:new 0 0 183.4 101.8;" xml:space="preserve">
<style type="text/css">
	.st0{fill:#B2B2B2;}
</style>
<path class="st0" d="M95.2,73.2l-2.5,24.5l-2.5-24.5c-0.1-0.9-0.1-1.8-0.1-2.7V47.7h5.2v22.8C95.3,71.3,95.2,72.3,95.2,73.2z"/>
<g>
	<path class="st0" d="M110.8,39.8c1.5-2.9,2.4-6.3,2.4-9.8c0-11.8-9.6-21.4-21.4-21.4c-11.8,0-21.4,9.6-21.4,21.4
		c0,11.8,9.6,21.4,21.4,21.4c3.3,0,6.4-0.7,9.2-2.1c1.1,2.7,3.7,4.6,6.8,4.6c4.1,0,7.4-3.3,7.4-7.4C115.1,43.6,113.3,41,110.8,39.8z
		 M101.4,42.7c-2.7,2.1-6.1,3.3-9.7,3.3c-8.8,0-16-7.2-16-16s7.2-16,16-16s16,7.2,16,16c0,3.8-1.4,7.3-3.6,10.1
		C103,40.7,102.1,41.6,101.4,42.7z M110.3,48.3c0.2,0.2,0.2,0.4,0,0.6c-0.1,0.1-0.2,0.1-0.3,0.1c-0.1,0-0.2,0-0.3-0.1l-2-2l-2,2
		c-0.1,0.1-0.2,0.1-0.3,0.1c-0.1,0-0.2,0-0.3-0.1c-0.2-0.2-0.2-0.4,0-0.6l2-2l-2-2c-0.2-0.2-0.2-0.4,0-0.6c0.2-0.2,0.4-0.2,0.6,0
		l2,2l2-2c0.2-0.2,0.4-0.2,0.6,0c0.2,0.2,0.2,0.4,0,0.6l-2,2L110.3,48.3z"/>
	<path class="st0" d="M98,32.8h-1.3c-1.4,0-2.5-1.1-2.5-2.5v-0.8c0.6-0.7,1-1.4,1.2-2.3c0-0.1,0.2-0.2,0.3-0.3
		c0.5-0.5,0.6-1.3,0.2-1.9c0-0.1-0.1-0.2-0.1-0.3c0-0.7,0-1.5,0-2.2c0-0.9-0.3-1.8-0.9-2.5c-0.5-0.5-1.2-0.9-1.9-1
		c-0.9-0.2-1.9-0.2-2.7,0.1c-0.8,0.2-1.5,0.7-2,1.3c-0.4,0.6-0.6,1.3-0.6,2c0,0.8,0,1.5,0,2.3c0,0.2-0.1,0.3-0.2,0.4
		c-0.3,0.6-0.2,1.5,0.4,1.9c0.1,0.1,0.2,0.3,0.2,0.4c0.2,0.7,0.6,1.4,1.1,2v0.8c0,1.4-1.1,2.5-2.5,2.5h-1.3c0,0-2.3,0.6-3.8,3.8v1.3
		c0,0.7,0.6,1.3,1.3,1.3h17.7c0.7,0,1.3-0.6,1.3-1.3v-1.3C100.3,33.5,98,32.8,98,32.8z"/>
</g>
</svg>
