<?xml version="1.0" encoding="utf-8"?>
<!-- Generator: Adobe Illustrator 23.0.6, SVG Export Plug-In . SVG Version: 6.00 Build 0)  -->
<svg version="1.1" id="Camada_1" xmlns="http://www.w3.org/2000/svg" xmlns:xlink="http://www.w3.org/1999/xlink" x="0px" y="0px"
	 viewBox="0 0 40 40" style="enable-background:new 0 0 40 40;" xml:space="preserve">
<style type="text/css">
	.st0{fill:#B2B2B2;}
	.st1{fill:#B20404;}
</style>
<path class="st0" d="M125.31,91.39l-2.45,24.51l-2.45-24.51c-0.09-0.91-0.14-1.83-0.14-2.75V65.87h5.18v22.78
	C125.45,89.56,125.41,90.48,125.31,91.39z"/>
<g>
	<path class="st1" d="M132.96,58.11v-1.26c-1.5-3.16-3.79-3.79-3.79-3.79h-1.26c-1.39,0-2.52-1.13-2.52-2.52v-0.81
		c0.56-0.66,0.96-1.45,1.21-2.28c0.03-0.14,0.16-0.21,0.25-0.31c0.48-0.48,0.58-1.3,0.22-1.88c-0.05-0.09-0.14-0.16-0.13-0.27
		c0-0.74,0-1.48,0-2.22c-0.02-0.89-0.27-1.82-0.9-2.48c-0.51-0.53-1.2-0.85-1.92-0.99c-0.9-0.17-1.85-0.16-2.75,0.06
		c-0.78,0.2-1.51,0.65-1.96,1.33c-0.4,0.59-0.57,1.3-0.6,2c-0.01,0.75,0,1.51-0.01,2.26c0.02,0.15-0.11,0.25-0.17,0.38
		c-0.34,0.62-0.19,1.46,0.36,1.91c0.14,0.1,0.17,0.27,0.22,0.42c0.24,0.75,0.64,1.44,1.14,2.04v0.84c0,1.39-1.13,2.52-2.52,2.52
		h-1.26c0,0-2.29,0.63-3.79,3.79v1.26c0,0.7,0.56,1.26,1.26,1.26h17.67C132.4,59.37,132.96,58.81,132.96,58.11z"/>
	<path class="st1" d="M141.9,60.06c1.52-2.94,2.39-6.28,2.39-9.82c0-11.83-9.59-21.42-21.42-21.42c-11.83,0-21.42,9.59-21.42,21.42
		s9.59,21.42,21.42,21.42c3.29,0,6.4-0.74,9.18-2.06c1.11,2.68,3.74,4.57,6.83,4.57c4.08,0,7.38-3.31,7.38-7.38
		C146.25,63.79,144.46,61.22,141.9,60.06z M132.58,62.94c-2.7,2.06-6.05,3.3-9.71,3.3c-8.84,0-16-7.17-16-16s7.17-16,16-16
		c8.84,0,16,7.17,16,16c0,3.83-1.35,7.35-3.6,10.1C134.16,60.96,133.24,61.86,132.58,62.94z M139.83,70.19h-1.67v-1.66h1.67V70.19z
		 M139.93,63.16l-0.49,4.57h-0.87l-0.49-4.57v-0.21h1.84V63.16z"/>
</g>
<path class="st0" d="M21.43,29l-1.1,11l-1.1-11c-0.04-0.41-0.06-0.82-0.06-1.23V17.55h2.32v10.22C21.49,28.18,21.47,28.59,21.43,29z
	"/>
<g>
	<polygon class="st1" points="17.49,7.89 18.67,9.07 19.02,8.72 17.84,7.54 17.84,6.59 16.07,5.31 15.26,6.12 16.54,7.89 	"/>
	<path class="st1" d="M23.41,7.89c0.45-0.45,0.57-1.14,0.3-1.72L22.7,7.18l-0.71-0.71l1.01-1.01c-0.56-0.27-1.25-0.17-1.72,0.3
		c-0.77,0.77-0.31,1.67-0.3,1.73l-3.54,3.54c-0.05,0-0.95-0.47-1.73,0.3c-0.45,0.45-0.57,1.14-0.3,1.72l1.01-1.01l0.71,0.71
		l-1.01,1.01c0.56,0.27,1.26,0.17,1.72-0.3c0.77-0.77,0.31-1.67,0.3-1.72l3.54-3.54C21.74,8.2,22.64,8.66,23.41,7.89z"/>
	
		<rect x="19.69" y="10.24" transform="matrix(0.7071 -0.7071 0.7071 0.7071 -1.4327 17.5312)" class="st1" width="1.51" height="0.51"/>
	
		<rect x="21.4" y="10.55" transform="matrix(0.7071 -0.7071 0.7071 0.7071 -2.1388 19.2361)" class="st1" width="1.51" height="3.31"/>
	<g>
		<path class="st1" d="M25.94,16.63c-0.12,0-0.18,0.09-0.18,0.22v0c0,0.13,0.07,0.22,0.19,0.22c0.12,0,0.19-0.09,0.19-0.22v0
			C26.13,16.72,26.06,16.63,25.94,16.63z"/>
		<path class="st1" d="M28.16,13.86c0.63-1.28,0.99-2.72,0.99-4.25c0-5.31-4.3-9.61-9.61-9.61c-5.31,0-9.61,4.3-9.61,9.61
			s4.3,9.61,9.61,9.61c1.67,0,3.25-0.43,4.62-1.18c0.42,1.34,1.67,2.32,3.16,2.32c1.82,0,3.3-1.48,3.3-3.3
			C30.62,15.52,29.57,14.23,28.16,13.86z M26.53,17.09c0,0.55-0.25,0.86-0.67,0.86c-0.18,0-0.33-0.05-0.47-0.15l0.17-0.3
			c0.09,0.07,0.18,0.11,0.29,0.11c0.2,0,0.26-0.17,0.27-0.32c-0.09,0.07-0.18,0.1-0.29,0.1c-0.26,0-0.47-0.17-0.47-0.49v-0.01
			c0-0.35,0.25-0.57,0.56-0.57c0.19,0,0.31,0.05,0.42,0.16C26.45,16.58,26.53,16.77,26.53,17.09L26.53,17.09z M19.54,16.69
			c-3.91,0-7.09-3.17-7.09-7.09c0-3.91,3.17-7.09,7.09-7.09c3.91,0,7.09,3.17,7.09,7.09C26.63,13.52,23.46,16.69,19.54,16.69z
			 M27.78,17.91h-1.09V17.6l0.5-0.48c0.13-0.13,0.18-0.2,0.18-0.29s-0.06-0.15-0.16-0.15c-0.1,0-0.18,0.06-0.29,0.18l-0.24-0.26
			c0.16-0.19,0.33-0.29,0.57-0.29c0.31,0,0.52,0.19,0.52,0.47v0c0,0.21-0.1,0.34-0.31,0.53l-0.26,0.25h0.57V17.91z M29.31,17.91
			H28.9v-0.61h-0.45v0.61h-0.4v-1.57h0.4v0.6h0.45v-0.6h0.41V17.91z"/>
	</g>
</g>
</svg>
