<?xml version="1.0" encoding="utf-8"?>
<!-- Generator: Adobe Illustrator 23.0.6, SVG Export Plug-In . SVG Version: 6.00 Build 0)  -->
<svg version="1.1" id="Camada_1" xmlns="http://www.w3.org/2000/svg" xmlns:xlink="http://www.w3.org/1999/xlink" x="0px" y="0px"
	 viewBox="0 0 183.4 101.8" style="enable-background:new 0 0 183.4 101.8;" xml:space="preserve">
<style type="text/css">
	.st0{fill:#B2B2B2;}
	.st1{fill:#B20404;}
</style>
<path class="st0" d="M95.3,73.2l-2.5,24.5l-2.5-24.5c-0.1-0.9-0.1-1.8-0.1-2.7V47.7h5.2v22.8C95.5,71.3,95.4,72.3,95.3,73.2z"/>
<g>
	<g>
		<g>
			<path class="st1" d="M110.8,39.8c1.5-2.9,2.4-6.3,2.4-9.8c0-11.8-9.6-21.4-21.4-21.4c-11.8,0-21.4,9.6-21.4,21.4
				s9.6,21.4,21.4,21.4c3.3,0,6.4-0.7,9.2-2.1c1.1,2.7,3.7,4.6,6.8,4.6c4.1,0,7.4-3.3,7.4-7.4C115.1,43.6,113.3,41,110.8,39.8z
				 M101.4,42.7c-2.7,2.1-6.1,3.3-9.7,3.3c-8.8,0-16-7.2-16-16s7.2-16,16-16c8.8,0,16,7.2,16,16c0,3.8-1.4,7.3-3.6,10.1
				C103,40.7,102.1,41.6,101.4,42.7z M108.7,50H107v-1.7h1.7V50z M108.8,42.9l-0.5,4.6h-0.9l-0.5-4.6v-0.2h1.8V42.9z"/>
		</g>
	</g>
	<path class="st1" d="M97.6,27.8l-4.6,0l1.3-7.1c0.1-0.3-0.1-0.6-0.4-0.8c-0.3-0.1-0.6-0.1-0.9,0.2l-7.9,10
		c-0.2,0.2-0.2,0.5-0.1,0.7c0.1,0.2,0.4,0.4,0.6,0.4l5.1,0l-1.4,7.9c-0.1,0.3,0.1,0.7,0.4,0.8c0.1,0,0.2,0.1,0.3,0.1
		c0.2,0,0.5-0.1,0.6-0.3l7.5-10.8c0.2-0.2,0.2-0.5,0.1-0.7C98.2,27.9,97.9,27.8,97.6,27.8z"/>
</g>
</svg>
