<?xml version="1.0" encoding="utf-8"?>
<!-- Generator: Adobe Illustrator 23.0.6, SVG Export Plug-In . SVG Version: 6.00 Build 0)  -->
<svg version="1.1" id="Camada_1" xmlns="http://www.w3.org/2000/svg" xmlns:xlink="http://www.w3.org/1999/xlink" x="0px" y="0px"
	 viewBox="0 0 183.4 101.8" style="enable-background:new 0 0 183.4 101.8;" xml:space="preserve">
<path d="M104,45c-1.3,0-2.4,0.6-3.1,1.6l-1-0.4v-0.6l3.1-1.3l0.8-1.8h0.4l1.8,2.2c0.1,0.1,0.2,0.1,0.3,0.1c0.1,0,0.2,0,0.2-0.1
	c0.1-0.1,0.2-0.3,0-0.5l-1.4-1.7h0.2c0.2,0,0.4-0.2,0.4-0.4c0-0.2-0.2-0.4-0.4-0.4h-0.5l0.5-0.2c0.2-0.1,0.3-0.4,0.2-0.6l-0.3-0.6
	c-0.1-0.2-0.2-0.3-0.4-0.3l-4.9,0h0c-0.1,0-0.2,0.1-0.3,0.1c0,0-1,1-2.9,1.3c-0.1-0.2-0.3-0.5-0.6-0.9c-0.7-0.8-1.6-1.2-2.7-1.2
	c-0.2,0-0.4,0-0.7,0c0,0,0,0,0,0c-0.1,0-1.3,0.2-3,0.7c0,0,0,0-0.1,0c-0.2,0-0.7,0-0.9-0.4c0,0,0-0.1,0-0.1l0.8-0.1
	c0.2,0,0.4-0.3,0.3-0.5c0-0.2-0.3-0.4-0.5-0.3l-0.7,0.1c0.1-0.4,0.3-1,0.8-1.8c0.1-0.2,0.1-0.4,0-0.5c-0.1-0.1-0.2-0.2-0.3-0.2
	c-0.1,0-0.1,0-0.2,0c0,0-1.2,0.5-2.3,1.6c-0.7,0.7-1.4,1.8-1.6,3.3c0.1-0.1,0.1-0.2,0.2-0.3c0,0,1.2,0.8,0.5,1.9H85
	c0,0.2,0,0.5,0.1,0.7c0,0.1,0.1,0.2,0.1,0.3l1,0.9c-3.3-0.4-4.4,1.7-4.4,1.7c-0.2,0.3-0.1,0.7,0.3,0.5c-0.3,0.5-0.4,1.1-0.4,1.7
	c0,2.1,1.7,3.8,3.8,3.8c2.1,0,3.8-1.7,3.8-3.8c0-0.2,0-0.3,0-0.5h4.6l-1.8-1.4c0,0-2.2,0.2-3.7-1.5c0.2,0,0.3,0,0.5,0
	c1.2,0,3,0.2,4.2,1.3c0,0,0,0,0,0l4.1,2.7c0.1,0.1,0.2,0.1,0.2,0.1c0.1,0,0.2,0,0.3-0.1l1.6-1.6l1,0.4c0,0.2,0,0.3,0,0.5
	c0,2.1,1.7,3.8,3.8,3.8c2.1,0,3.8-1.7,3.8-3.8C107.7,46.6,106,45,104,45L104,45z M99.9,44l2.8-1.3l-0.4,0.9l-2.4,1V44z M85.4,50.7
	c-1.1,0-2-0.9-2-2c0-1.1,0.9-2,2-2c0,0,0.1,0,0.1,0l-0.8,1.7l1.6,0.8l0.8-1.6c0.2,0.3,0.3,0.7,0.3,1.1
	C87.4,49.8,86.5,50.7,85.4,50.7L85.4,50.7z M104,50.7c-1,0-1.8-0.8-2-1.7l1.5,0.6l0.7-1.6l-1.6-0.7c0.4-0.4,0.9-0.6,1.4-0.6
	c1.1,0,2,0.9,2,2C106,49.8,105.1,50.7,104,50.7L104,50.7z M104,50.7"/>
<path d="M94.7,24.2c-11.7,0-21.2,9.5-21.2,21.2s9.5,21.2,21.2,21.2s21.2-9.5,21.2-21.2S106.4,24.2,94.7,24.2z M94.7,61.5
	c-8.8,0-16-7.2-16-16s7.2-16,16-16s16,7.2,16,16S103.5,61.5,94.7,61.5z"/>
</svg>
