<?xml version="1.0" encoding="utf-8"?>
<!-- Generator: Adobe Illustrator 23.0.6, SVG Export Plug-In . SVG Version: 6.00 Build 0)  -->
<svg version="1.1" id="Camada_1" xmlns="http://www.w3.org/2000/svg" xmlns:xlink="http://www.w3.org/1999/xlink" x="0px" y="0px"
	 viewBox="0 0 183.4 101.8" style="enable-background:new 0 0 183.4 101.8;" xml:space="preserve">
<path d="M100.2,44.7h-0.8v-4.8c0-2.6-2.1-4.8-4.8-4.8c-2.6,0-4.8,2.1-4.8,4.8v1.6h1.6v-1.6c0-1.8,1.4-3.2,3.2-3.2s3.2,1.4,3.2,3.2
	v4.8h-8.7C87,47.6,87.4,51.6,90,54c2.6,2.4,6.7,2.4,9.3,0C102,51.6,102.4,47.6,100.2,44.7L100.2,44.7z M95.5,50.8v2
	c0,0.4-0.4,0.8-0.8,0.8s-0.8-0.4-0.8-0.8v-2c-0.5-0.3-0.8-0.8-0.8-1.3c0-0.9,0.7-1.6,1.6-1.6s1.6,0.7,1.6,1.6
	C96.3,50,95.9,50.5,95.5,50.8L95.5,50.8z M95.5,50.8"/>
<path d="M94.7,24.2c-11.7,0-21.2,9.5-21.2,21.2s9.5,21.2,21.2,21.2s21.2-9.5,21.2-21.2S106.4,24.2,94.7,24.2z M94.7,61.5
	c-8.8,0-16-7.2-16-16s7.2-16,16-16s16,7.2,16,16S103.5,61.5,94.7,61.5z"/>
</svg>
