<?xml version="1.0" encoding="utf-8"?>
<!-- Generator: Adobe Illustrator 23.0.6, SVG Export Plug-In . SVG Version: 6.00 Build 0)  -->
<svg version="1.1" id="Camada_1" xmlns="http://www.w3.org/2000/svg" xmlns:xlink="http://www.w3.org/1999/xlink" x="0px" y="0px"
	 viewBox="0 0 183.4 101.8" style="enable-background:new 0 0 183.4 101.8;" xml:space="preserve">
<g>
	<path d="M88.9,52.4l-0.6,2h12.9l-0.6-2H88.9z M90.9,54h-2.1l0.4-1.2h2.9C91.7,53.2,91.3,53.6,90.9,54L90.9,54z M90.9,54"/>
	<path d="M94.6,40.5c-2.8,0-5.1,2.3-5.1,5.1v6.3h10.3v-6.3C99.8,42.8,97.5,40.5,94.6,40.5L94.6,40.5z M98.9,45.8
		c0,0.2-0.2,0.4-0.4,0.4c-0.2,0-0.4-0.2-0.4-0.4c0-1.8-1.4-3.2-3.2-3.2h-0.1c-0.2,0-0.4-0.2-0.4-0.4c0-0.2,0.2-0.4,0.4-0.4h0.1
		C97,41.7,98.9,43.5,98.9,45.8L98.9,45.8z M98.9,45.8"/>
	<path d="M88.7,43.6c0.1-0.5-0.2-0.9-0.7-1l-2.4-0.5c-0.5-0.1-0.9,0.2-1,0.7c0,0.1,0,0.2,0,0.3c0.1,0.3,0.3,0.6,0.7,0.7l2.4,0.5
		C88.2,44.3,88.6,44,88.7,43.6L88.7,43.6z M88.7,43.6"/>
	<path d="M88.1,38l1.5,1.9c0.3,0.4,0.8,0.4,1.2,0.1c0.4-0.3,0.4-0.8,0.1-1.2l-1.5-1.9c-0.3-0.4-0.8-0.4-1.2-0.1
		C88,37,87.9,37.3,88,37.6C88,37.7,88,37.8,88.1,38L88.1,38z M88.1,38"/>
	<path d="M94.8,38.7c0.5,0,0.8-0.4,0.9-0.8l0-2.5c0-0.5-0.4-0.8-0.8-0.9c-0.5,0-0.8,0.4-0.9,0.8l0,2.5c0,0,0,0.1,0,0.1
		C94,38.4,94.4,38.7,94.8,38.7L94.8,38.7z M94.8,38.7"/>
	<path d="M98.6,40.2c0.3,0.3,0.9,0.3,1.2-0.1l1.6-1.8c0.3-0.3,0.3-0.9-0.1-1.2c-0.3-0.3-0.9-0.3-1.2,0.1L98.6,39
		c-0.2,0.2-0.2,0.4-0.2,0.7C98.4,39.9,98.5,40.1,98.6,40.2L98.6,40.2z M98.6,40.2"/>
	<path d="M104.7,43.2c-0.1-0.5-0.5-0.8-1-0.7l-2.4,0.4c-0.5,0.1-0.8,0.5-0.7,1c0.1,0.5,0.5,0.8,1,0.7l2.4-0.4
		C104.5,44.1,104.8,43.7,104.7,43.2L104.7,43.2z M104.7,43.2"/>
</g>
<path d="M94.7,24.2c-11.7,0-21.2,9.5-21.2,21.2s9.5,21.2,21.2,21.2s21.2-9.5,21.2-21.2S106.4,24.2,94.7,24.2z M94.7,61.5
	c-8.8,0-16-7.2-16-16s7.2-16,16-16s16,7.2,16,16S103.5,61.5,94.7,61.5z"/>
</svg>
