<?xml version="1.0" encoding="utf-8"?>
<!-- Generator: Adobe Illustrator 23.0.6, SVG Export Plug-In . SVG Version: 6.00 Build 0)  -->
<svg version="1.1" id="Camada_1" xmlns="http://www.w3.org/2000/svg" xmlns:xlink="http://www.w3.org/1999/xlink" x="0px" y="0px"
	 viewBox="0 0 183.4 101.8" style="enable-background:new 0 0 183.4 101.8;" xml:space="preserve">
<path d="M94.7,24.2c-11.7,0-21.2,9.5-21.2,21.2s9.5,21.2,21.2,21.2s21.2-9.5,21.2-21.2S106.4,24.2,94.7,24.2z M94.7,61.5
	c-8.8,0-16-7.2-16-16s7.2-16,16-16s16,7.2,16,16S103.5,61.5,94.7,61.5z"/>
<path d="M100.6,43.4l-4.6,0l1.3-7.1c0.1-0.3-0.1-0.6-0.4-0.8c-0.3-0.1-0.6-0.1-0.9,0.2l-7.9,10c-0.2,0.2-0.2,0.5-0.1,0.7
	c0.1,0.2,0.4,0.4,0.6,0.4l5.1,0l-1.4,7.9c-0.1,0.3,0.1,0.7,0.4,0.8c0.1,0,0.2,0.1,0.3,0.1c0.2,0,0.5-0.1,0.6-0.3l7.5-10.8
	c0.2-0.2,0.2-0.5,0.1-0.7C101.1,43.5,100.9,43.4,100.6,43.4z"/>
</svg>
