<?xml version="1.0" encoding="utf-8"?>
<!-- Generator: Adobe Illustrator 23.0.6, SVG Export Plug-In . SVG Version: 6.00 Build 0)  -->
<svg version="1.1" id="Camada_1" xmlns="http://www.w3.org/2000/svg" xmlns:xlink="http://www.w3.org/1999/xlink" x="0px" y="0px"
	 viewBox="0 0 183.4 101.8" style="enable-background:new 0 0 183.4 101.8;" xml:space="preserve">
<g>
	<polygon points="90.1,42.7 92.7,45.3 93.5,44.5 90.9,41.9 90.9,39.8 86.9,36.9 85.1,38.7 88,42.7 	"/>
	<path d="M103.3,42.7c1-1,1.3-2.5,0.7-3.8l-2.2,2.2l-1.6-1.6l2.2-2.2c-1.2-0.6-2.8-0.4-3.8,0.7c-1.7,1.7-0.7,3.7-0.7,3.8l-7.9,7.9
		c-0.1,0-2.1-1-3.8,0.7c-1,1-1.3,2.5-0.7,3.8l2.2-2.2l1.6,1.6L87,55.7c1.3,0.6,2.8,0.4,3.8-0.7c1.7-1.7,0.7-3.7,0.7-3.8l7.9-7.9
		C99.5,43.3,101.6,44.4,103.3,42.7z"/>
	<rect x="95" y="47.9" transform="matrix(0.7071 -0.7071 0.7071 0.7071 -5.9556 82.5408)" width="3.4" height="1.1"/>
	<rect x="98.8" y="48.6" transform="matrix(0.7071 -0.7071 0.7071 0.7071 -7.5285 86.3415)" width="3.4" height="7.4"/>
</g>
<path d="M94.7,24.2c-11.7,0-21.2,9.5-21.2,21.2s9.5,21.2,21.2,21.2s21.2-9.5,21.2-21.2S106.4,24.2,94.7,24.2z M94.7,61.5
	c-8.8,0-16-7.2-16-16s7.2-16,16-16s16,7.2,16,16S103.5,61.5,94.7,61.5z"/>
</svg>
